<?xml version="1.0" encoding="iso-8859-1"?>
<!-- Uploaded to: SVG Repo, www.svgrepo.com, Generator: SVG Repo Mixer Tools -->
<svg height="800px" width="800px" version="1.1" id="Layer_1" xmlns="http://www.w3.org/2000/svg" xmlns:xlink="http://www.w3.org/1999/xlink" 
	 viewBox="0 0 503.322 503.322" xml:space="preserve">
<g>
	<path style="fill:#F9EBB0;" d="M485.966,190.915H260.105c-20.306,20.897-65.475,65.805-69.12,69.424
		c-3.141-2.621-48.51-48.388-69.146-69.424H17.356C7.775,190.915,0,198.691,0,208.271v277.695c0,9.58,7.775,17.356,17.356,17.356
		h468.61c9.58,0,17.356-7.775,17.356-17.356V208.271C503.322,198.691,495.547,190.915,485.966,190.915"/>
	<path style="fill:#B7A776;" d="M297.416,347.119l-45.75,34.712l-45.759-34.712L5.853,498.879c3.072,2.734,7.073,4.443,11.507,4.443
		h468.61c4.426,0,8.426-1.71,11.498-4.443L297.416,347.119z"/>
	<path style="fill:#C03A2B;" d="M238.754,86.78c-23.101,0-40.561,16.584-47.868,34.712c-7.289-18.128-24.758-34.712-47.85-34.712
		c-47.859,0-63.479,60.433-28.906,96.23c12.869,13.329,73.225,74.292,76.861,77.329c4.209-4.183,64.208-63.826,76.67-77.329
		C302.329,145.46,286.613,86.78,238.754,86.78"/>
	<path style="fill:#96241B;" d="M355.17,17.356C360.073,6.526,371.537,0,384.571,0c17.547,0,30.191,13.989,31.779,30.659
		c0,0,0.85,4.139-1.024,11.594c-2.577,10.145-8.626,19.161-16.766,26.043l-42.765,35.84l-42.756-35.849
		c-8.149-6.873-14.188-15.889-16.766-26.034c-1.883-7.454-1.024-11.594-1.024-11.594C296.828,13.989,309.472,0,327.027,0
		C340.062,0,350.267,6.526,355.17,17.356"/>
	<path style="fill:#D1C299;" d="M485.966,190.915H260.105c-20.306,20.897-65.475,65.805-69.12,69.424
		c-3.141-2.621-48.51-48.388-69.146-69.424H17.356c-4.434,0-8.435,1.71-11.498,4.443l245.803,186.472l245.803-186.472
		C494.401,192.625,490.401,190.915,485.966,190.915"/>
</g>
</svg>